<?xml version="1.0" encoding="UTF-8" standalone="no"?><!DOCTYPE svg PUBLIC "-//W3C//DTD SVG 1.1//EN" "http://www.w3.org/Graphics/SVG/1.1/DTD/svg11.dtd"><svg width="129px" height="47px" version="1.1" xmlns="http://www.w3.org/2000/svg" xmlns:xlink="http://www.w3.org/1999/xlink" xml:space="preserve" xmlns:serif="http://www.serif.com/" style="fill-rule:evenodd;clip-rule:evenodd;stroke-linecap:round;stroke-linejoin:round;stroke-miterlimit:1.5;"><rect id="LOGO2" x="0" y="0.498" width="129" height="46" style="fill:none;"/><path d="M28,3.498l0,30" style="fill:none;stroke:#677382;stroke-width:4px;"/><path d="M35,13.498l0,20" style="fill:none;stroke:#677382;stroke-width:4px;"/><path d="M84,13.498l0,20" style="fill:none;stroke:#677382;stroke-width:4px;"/><path d="M21,9.498c0,0 0,-0.898 0,-2c0,-1.06 -0.421,-2.078 -1.172,-2.828c-0.75,-0.75 -1.767,-1.172 -2.828,-1.172c-1.588,0 -3.412,0 -5,0c-1.061,0 -2.078,0.422 -2.828,1.172c-0.751,0.75 -1.172,1.768 -1.172,2.828l0,29" style="fill:none;stroke:#677382;stroke-width:4px;"/><path d="M3,15.498l12,0" style="fill:none;stroke:#ff0040;stroke-width:4px;"/><path d="M120,33.498l-4,0c-1.061,0 -2.078,-0.421 -2.828,-1.171c-0.751,-0.75 -1.172,-1.768 -1.172,-2.829l0,-12c0,-2.209 1.791,-4 4,-4c1.881,0 4.119,0 6,0c1.061,0 2.078,0.422 2.828,1.172c0.751,0.75 1.172,1.768 1.172,2.828c0,5.742 0,16.259 0,22c0,1.061 -0.421,2.079 -1.172,2.829c-0.75,0.75 -1.767,1.171 -2.828,1.171c-3.146,0 -7,0 -7,0" style="fill:none;stroke:#677382;stroke-width:4px;"/><path d="M48,33.498l4,0c1.061,0 2.078,-0.421 2.828,-1.171c0.751,-0.75 1.172,-1.768 1.172,-2.829l0,-12c0,-2.209 -1.791,-4 -4,-4c-1.881,0 -4.119,0 -6,0c-1.061,0 -2.078,0.422 -2.828,1.172c-0.751,0.75 -1.172,1.768 -1.172,2.828c0,8.168 0,26 0,26" style="fill:none;stroke:#677382;stroke-width:4px;"/><path d="M69,33.498l4,0c1.061,0 2.078,-0.421 2.828,-1.171c0.751,-0.75 1.172,-1.768 1.172,-2.829l0,-12c0,-2.209 -1.791,-4 -4,-4c-1.881,0 -4.119,0 -6,0c-1.061,0 -2.078,0.422 -2.828,1.172c-0.751,0.75 -1.172,1.768 -1.172,2.828c0,8.168 0,26 0,26" style="fill:none;stroke:#677382;stroke-width:4px;"/><path d="M105,33.498l0,-16c0,-2.209 -1.791,-4 -4,-4c-1.881,0 -4.119,0 -6,0c-2.209,0 -4,1.791 -4,4c0,5.837 0,16 0,16" style="fill:none;stroke:#677382;stroke-width:4px;"/><path d="M35,3.498l0,3" style="fill:none;stroke:#677382;stroke-width:4px;"/><path d="M84,3.498l0,3" style="fill:none;stroke:#677382;stroke-width:4px;"/></svg>